<svg width="14" height="14" viewBox="0 0 14 14" fill="none" xmlns="http://www.w3.org/2000/svg">
<path d="M2.44415 12H2.11515C1.42715 12 0.831149 11.532 0.727149 10.852C0.504148 9.377 0.272149 6.689 0.944149 4M0.944149 4C0.944149 4 1.94415 1.5 3.94415 0.5H9.44415C11.4441 1.5 12.4441 4 12.4441 4M0.944149 4H12.4441M12.4441 4C13.1161 6.689 12.8841 9.378 12.6611 10.851C12.5571 11.532 11.9611 12.001 11.2731 12.001H10.9441M6.69415 0.5V4M8.74615 9.453C8.32815 8.617 7.49015 7.779 6.65415 7.36C5.81715 7.779 4.98015 8.616 4.56115 9.453M6.65215 12.715V7.383" stroke="#142204" stroke-linecap="round" stroke-linejoin="round"/>
</svg>
