<svg width="18" height="18" viewBox="0 0 18 18" fill="none" xmlns="http://www.w3.org/2000/svg">
<path d="M11.187 0.75C9.54398 2.39538 8.30251 4.31919 7.5254 5.76759M16.75 6.32074C15.1001 7.97295 13.1699 9.21964 11.7215 9.99721M5.05171 12.4394L1.03425 16.4625M10.2047 7.28208C12.3 9.38041 12.4497 12.5789 10.2047 14.6211C7.42934 17.1456 2.96388 16.9161 1.03033 16.4693C0.58412 14.5331 0.354931 10.0613 2.87597 7.28208C4.91525 5.03393 8.10928 5.18376 10.2047 7.28208ZM6.29121 12.8764C7.34016 12.8764 7.9302 12.2855 7.9302 11.2351C7.9302 10.1846 7.34016 9.59376 6.29121 9.59376C5.24225 9.59376 4.65221 10.1846 4.65221 11.2351C4.65221 12.2855 5.24225 12.8764 6.29121 12.8764Z" stroke="#142204" stroke-width="1.5" stroke-linecap="round" stroke-linejoin="round"/>
</svg>
