<svg width="26" height="24" viewBox="0 0 26 24" fill="none" xmlns="http://www.w3.org/2000/svg">
<path d="M22.5446 9.441C22.576 10.1486 22.5936 10.8487 22.5936 11.5296C22.5936 13.83 22.3919 16.3541 22.145 18.6437C21.9744 20.2276 20.743 21.4816 19.1741 21.6593C14.7389 22.1616 12.1058 22.215 7.6661 21.7552L2.48552 23L3.6862 17.4259C3.64958 17.0464 3.61484 16.6628 3.58261 16.2772M22.2369 5.30596C22.2074 5.00878 22.1766 4.71442 22.1452 4.42384C21.9744 2.83989 20.743 1.58585 19.1743 1.40651C14.4348 0.864649 11.5219 0.864369 6.78252 1.40644C5.21386 1.58585 3.98246 2.83989 3.81084 4.42374C3.56306 6.71047 3.35985 9.22972 3.35985 11.5296C3.35985 11.898 3.36507 12.2722 3.37484 12.6502M1 10.2808C1.48123 11.2522 2.4437 12.2235 3.40612 12.7092C4.36861 12.2235 5.33108 11.2522 5.81231 10.2808M20.1875 11.8027C20.6689 10.8313 21.6314 9.85997 22.5938 9.3743C23.5562 9.85997 24.5186 10.8313 25 11.8027" stroke="#B4FF5E" stroke-width="2" stroke-linecap="round" stroke-linejoin="round"/>
</svg>
