<svg width="26" height="26" viewBox="0 0 26 26" fill="none" xmlns="http://www.w3.org/2000/svg">
<path d="M19.1507 5.71611V7.97976M1.31726 12.3645L2.63374 12.2831C4.15305 12.1891 5.67778 12.3305 7.1539 12.7022L9.33979 13.2526C10.5271 13.5516 11.3149 14.6766 11.1896 15.8943C11.0429 17.3197 9.71527 18.3199 8.30433 18.0679L6.24214 17.6995L13.5131 19.0031L21.0442 17.216C22.2625 16.9269 23.4892 17.6608 23.8103 18.8707C24.1085 19.9946 23.5246 21.1649 22.4472 21.6026L16.423 24.0497C13.4927 25.2401 10.2274 25.3147 7.24571 24.2592L1 22.0485M19.1507 12.6962C22.8944 12.6962 25 10.5909 25 6.84811C25 3.10533 22.8944 1 19.1507 1C15.4071 1 13.3014 3.10533 13.3014 6.84811C13.3014 10.5909 15.4071 12.6962 19.1507 12.6962Z" stroke="#B4FF5E" stroke-width="2" stroke-linecap="round" stroke-linejoin="round"/>
</svg>
