<svg width="26" height="26" viewBox="0 0 26 26" fill="none" xmlns="http://www.w3.org/2000/svg">
<path d="M15.0244 7.74902C15.1999 6.26462 15.7513 4.96465 16.57 3.9042C17.2109 3.0741 18.4244 3.0741 19.0653 3.9042C19.8841 4.96465 20.4354 6.26462 20.6109 7.74902C22.0693 7.92773 23.3464 8.48891 24.3884 9.32228C25.2039 9.97463 25.2039 11.2097 24.3884 11.862C23.3464 12.6954 22.0695 13.2566 20.6111 13.4353C20.4354 14.9197 19.8841 16.2197 19.0653 17.2801C18.4244 18.1102 17.211 18.1102 16.5701 17.2801C15.7514 16.2197 15.2 14.9197 15.0244 13.4353C13.566 13.2566 12.2889 12.6954 11.247 11.862C10.4315 11.2097 10.4315 9.97463 11.247 9.32228C12.2889 8.48891 13.566 7.92773 15.0244 7.74902Z" stroke="#B4FF5E" stroke-width="2" stroke-linecap="round" stroke-linejoin="round"/>
<path d="M4.56917 16.7451C4.71192 15.5383 5.16015 14.4815 5.8258 13.6193C6.34686 12.9444 7.33335 12.9444 7.85442 13.6193C8.52007 14.4815 8.9683 15.5383 9.11105 16.7451C10.2967 16.8904 11.3351 17.3467 12.1821 18.0242C12.8451 18.5545 12.8451 19.5587 12.1821 20.089C11.3351 20.7666 10.2968 21.2227 9.11113 21.3681C8.96838 22.575 8.52015 23.6317 7.85449 24.4938C7.33343 25.1687 6.34694 25.1687 5.82588 24.4938C5.16022 23.6317 4.71199 22.575 4.56924 21.3681C3.38358 21.2227 2.34523 20.7666 1.49821 20.089C0.835156 19.5587 0.835156 18.5545 1.49821 18.0242C2.34523 17.3467 3.3835 16.8904 4.56917 16.7451Z" stroke="#B4FF5E" stroke-width="2" stroke-linecap="round" stroke-linejoin="round"/>
<path d="M3.583 3.62912C3.68633 2.75553 4.01079 1.9905 4.49265 1.3664C4.86983 0.877867 5.58395 0.877866 5.96114 1.3664C6.44299 1.9905 6.76746 2.75553 6.87079 3.62912C7.72907 3.7343 8.48071 4.06457 9.09386 4.55502C9.57383 4.93893 9.57383 5.66577 9.09386 6.04969C8.48071 6.54014 7.72913 6.87039 6.87084 6.97556C6.76751 7.84916 6.44303 8.61421 5.96119 9.23831C5.58399 9.72684 4.86989 9.72684 4.4927 9.23831C4.01085 8.61421 3.68639 7.84916 3.58305 6.97556C2.72477 6.87039 1.97313 6.54014 1.35998 6.04969C0.880007 5.66577 0.880007 4.93893 1.35998 4.55502C1.97313 4.06457 2.72471 3.7343 3.583 3.62912Z" stroke="#B4FF5E" stroke-width="2" stroke-linecap="round" stroke-linejoin="round"/>
</svg>
