<svg width="75" height="75" viewBox="0 0 75 75" fill="none" xmlns="http://www.w3.org/2000/svg">
<path d="M12.8095 50.6035C19.5124 51.006 25.0209 52.1724 30.2238 53.2748C41.3624 55.6372 51.0881 57.6973 68.0966 51.2869C69.4437 50.7809 70.4623 49.6671 70.7202 48.2509C71.2459 45.3431 72 39.2662 72 28.287C72 20.1532 71.586 14.7088 71.1572 11.2522C70.8089 8.43638 68.0013 7.03667 65.3021 7.91395C50.6034 12.6881 41.4839 10.0168 31.4724 7.08596C25.1014 5.21803 18.3673 3.24661 9.60429 3.02154H7.92857M6.07543 3.09875C4.3455 3.29589 3.43371 4.83196 3.37129 6.57339C3.22507 10.6148 3 19.7326 3 37.5001C3 55.2675 3.22507 64.3837 3.37129 68.4268C3.43371 70.1682 4.3455 71.7043 6.07543 71.9031C6.59457 71.9622 7.209 72 7.92857 72C8.64979 72 9.26257 71.9622 9.78171 71.9014C11.5116 71.7043 12.4234 70.1682 12.4859 68.4268C12.6321 64.3854 12.8571 55.2675 12.8571 37.5001C12.8571 19.7326 12.6321 10.6164 12.4859 6.57339C12.4234 4.83196 11.5116 3.29589 9.78171 3.09711C9.16634 3.02963 8.54763 2.99726 7.92857 3.00018C7.20736 3.00018 6.59457 3.03797 6.07543 3.09875Z" stroke="#B4FF5E" stroke-width="6" stroke-linecap="round" stroke-linejoin="round"/>
</svg>
