<svg width="278" height="278" viewBox="0 0 278 278" fill="none" xmlns="http://www.w3.org/2000/svg">
<path d="M101.752 100.6C104.761 92.0453 110.701 84.8318 118.519 80.2369C126.338 75.642 135.53 73.9624 144.468 75.4955C153.406 77.0286 161.513 81.6755 167.353 88.6132C173.193 95.5508 176.39 104.331 176.376 113.4C176.376 139 137.976 151.8 137.976 151.8M139 203H139.128M267 139C267 209.692 209.692 267 139 267C68.3075 267 11 209.692 11 139C11 68.3075 68.3075 11 139 11C209.692 11 267 68.3075 267 139Z" stroke="#CEFF97" stroke-width="22" stroke-linecap="round" stroke-linejoin="round"/>
</svg>
