<svg width="278" height="244" viewBox="0 0 278 244" fill="none" xmlns="http://www.w3.org/2000/svg">
<path d="M139 85.84V134.893M139 183.947H139.123M118.051 22.8065L14.2835 196.21C12.1441 199.919 11.0121 204.124 11.0001 208.406C10.9881 212.689 12.0966 216.9 14.2153 220.62C16.3339 224.341 19.3889 227.442 23.0763 229.613C26.7636 231.785 30.9549 232.953 35.233 233H242.767C247.045 232.953 251.236 231.785 254.924 229.613C258.611 227.442 261.666 224.341 263.785 220.62C265.903 216.9 267.012 212.689 267 208.406C266.988 204.124 265.856 199.919 263.716 196.21L159.949 22.8065C157.765 19.2023 154.69 16.2225 151.021 14.1545C147.351 12.0864 143.211 11 139 11C134.789 11 130.649 12.0864 126.979 14.1545C123.31 16.2225 120.235 19.2023 118.051 22.8065Z" stroke="#CEFF97" stroke-width="22" stroke-linecap="round" stroke-linejoin="round"/>
</svg>
