<svg width="40" height="40" viewBox="0 0 40 40" fill="none" xmlns="http://www.w3.org/2000/svg">
<path d="M2.83763 28.9018C3.2692 32.9358 6.51356 36.1801 10.5454 36.6295C13.5402 36.9633 16.615 37.25 19.75 37.25C22.885 37.25 25.9598 36.9633 28.9544 36.6295C32.9864 36.1801 36.2308 32.9358 36.6623 28.9018C36.9809 25.9241 37.25 22.8668 37.25 19.75C37.25 16.6332 36.9809 13.5759 36.6623 10.5981C36.2308 6.5643 32.9864 3.31991 28.9544 2.87051C25.9598 2.5367 22.885 2.25 19.75 2.25C16.615 2.25 13.5402 2.5367 10.5454 2.87051C6.51356 3.31991 3.2692 6.5643 2.83763 10.5981C2.51903 13.5759 2.25 16.6332 2.25 19.75C2.25 22.8668 2.51904 25.9241 2.83763 28.9018Z" stroke="#081730" stroke-width="4.5" stroke-linecap="round" stroke-linejoin="round"/>
<path d="M37.1316 22.55H28.1171C26.576 22.55 25.3651 23.8634 24.6858 25.2515C23.948 26.7595 22.4703 28.15 19.7455 28.15C17.0207 28.15 15.5431 26.7595 14.8052 25.2515C14.126 23.8634 12.9151 22.55 11.3739 22.55H2.35937C2.44841 24.9002 2.6385 27.2294 2.87264 29.4873C3.26377 33.2589 6.22852 36.2608 9.9862 36.6656C13.1469 37.0061 16.4391 37.25 19.7455 37.25C23.052 37.25 26.3441 37.0061 29.5049 36.6656C33.2625 36.2608 36.2272 33.2589 36.6183 29.4873C36.8527 27.2294 37.0425 24.9002 37.1316 22.55Z" stroke="#081730" stroke-width="4.5" stroke-linecap="round" stroke-linejoin="round"/>
</svg>
