<svg width="36" height="39" viewBox="0 0 36 39" fill="none" xmlns="http://www.w3.org/2000/svg">
<path d="M12.2318 19.2956H23.3516M12.2318 27.7721H23.317M12.2318 10.5H18.942M33.4652 31.1611C33.7065 27.3165 33.8333 23.3324 33.8333 19.25C33.8333 17.5966 33.8126 15.9593 33.7718 14.3409C33.7432 13.204 33.3742 12.099 32.7014 11.1822C30.1362 7.68769 28.0927 5.51518 24.7249 2.916C23.7994 2.2017 22.6637 1.81417 21.4949 1.78862C20.3229 1.76301 19.0991 1.75 17.7917 1.75C13.8339 1.75 10.6413 1.8692 7.33746 2.09635C4.52684 2.28961 2.29463 4.52708 2.11814 7.3388C1.87685 11.1835 1.75 15.1676 1.75 19.25C1.75 23.3324 1.87685 27.3165 2.11814 31.1611C2.29463 33.973 4.52684 36.2104 7.33746 36.4035C10.6413 36.6307 13.8339 36.75 17.7917 36.75C21.7494 36.75 24.942 36.6307 28.2459 36.4035C31.0564 36.2104 33.2888 33.973 33.4652 31.1611Z" stroke="#081730" stroke-width="3.5" stroke-linecap="round" stroke-linejoin="round"/>
</svg>
