<svg width="43" height="43" viewBox="0 0 43 43" fill="none" xmlns="http://www.w3.org/2000/svg">
<path d="M22.8582 40.2209L21.2385 40.2269C16.8088 40.2269 12.4858 40.0892 8.31417 39.8275C5.26329 39.636 2.84095 37.2137 2.64945 34.1629C2.38763 29.9911 2.25 25.6682 2.25 21.2385C2.25 16.8088 2.38763 12.4858 2.64945 8.31416C2.84095 5.26328 5.26329 2.84095 8.31417 2.64946C12.4858 2.38763 16.8088 2.25 21.2385 2.25C25.6682 2.25 29.9912 2.38763 34.1627 2.64946C37.2138 2.84095 39.6361 5.26328 39.8276 8.31416C40.0893 12.4858 40.227 16.8088 40.227 21.2385L40.1931 25.0326M40.227 25.0208C38.7 34.4465 29.6369 39.5335 22.8209 40.25C25.4161 36.7919 27.2437 33.2711 28.0401 27.9489C28.2857 26.3076 29.6444 25.0208 31.304 25.0208H40.227Z" stroke="#142204" stroke-width="4.5" stroke-linecap="round" stroke-linejoin="round"/>
</svg>
