<svg width="42" height="42" viewBox="0 0 42 42" fill="none" xmlns="http://www.w3.org/2000/svg">
<path d="M30.7325 9.46717V13.0513M2.50222 19.9938L4.58621 19.8649C6.99128 19.7161 9.40491 19.9399 11.7416 20.5284L15.2019 21.3999C17.0814 21.8733 18.3284 23.6546 18.1301 25.5826C17.8979 27.8396 15.7962 29.4232 13.5627 29.0241L10.2983 28.4409L21.8082 30.5048L33.7298 27.6753C35.6585 27.2176 37.6003 28.3797 38.1086 30.2953C38.5807 32.0748 37.6564 33.9277 35.9508 34.6208L26.4146 38.4953C21.7758 40.3801 16.6069 40.4982 11.8869 38.8271L2 35.3267M30.7325 20.519C36.6588 20.519 39.9919 17.1856 39.9919 11.2595C39.9919 5.33343 36.6588 2 30.7325 2C24.8065 2 21.4731 5.33343 21.4731 11.2595C21.4731 17.1856 24.8065 20.519 30.7325 20.519Z" stroke="#142204" stroke-width="4" stroke-linecap="round" stroke-linejoin="round"/>
</svg>
