<svg width="42" height="39" viewBox="0 0 42 39" fill="none" xmlns="http://www.w3.org/2000/svg">
<path d="M1.75 36.4035L4.44047 28.8701M15.0729 28.8701L15.0731 36.4035M22.2665 18.2334C20.0944 17.8249 16.9509 16.4015 15.4881 15.1544M27.4017 19.8301H30.8453C32.7027 19.8301 34.1599 20.7341 35.3653 24.3501C36.0921 26.5304 37.4677 30.5428 37.8278 31.8274M36.0662 26.7351H33.4904C31.319 26.7351 29.3155 27.9034 28.2458 29.7931L27.0087 31.9784M5.55038 17.0729C5.79627 14.3679 8.06429 12.2967 10.7805 12.2967C13.8687 12.2967 16.2902 14.9484 16.0106 18.0239L15.0246 28.8701H4.4779L5.55038 17.0729ZM25.9887 36.8344C27.4187 36.8344 28.5779 35.6751 28.5779 34.2453C28.5779 32.8152 27.4187 31.6562 25.9887 31.6562C24.5588 31.6562 23.3996 32.8152 23.3996 34.2453C23.3996 35.6751 24.5588 36.8344 25.9887 36.8344ZM37.1606 36.8344C38.5908 36.8344 39.75 35.6751 39.75 34.2453C39.75 32.8152 38.5908 31.6562 37.1606 31.6562C35.7308 31.6562 34.5716 32.8152 34.5716 34.2453C34.5716 35.6751 35.7308 36.8344 37.1606 36.8344ZM11.2579 12.2967C14.6329 12.2967 16.5313 10.3983 16.5313 7.02335C16.5313 3.64841 14.6329 1.75 11.2579 1.75C7.88298 1.75 5.98457 3.64841 5.98457 7.02335C5.98457 10.3983 7.88298 12.2967 11.2579 12.2967Z" stroke="#142204" stroke-width="3.5" stroke-linecap="round" stroke-linejoin="round"/>
</svg>