<svg width="42" height="43" viewBox="0 0 42 43" fill="none" xmlns="http://www.w3.org/2000/svg">
<path d="M11.3699 18.3597H12.8898M11.3699 27.4795H12.8898M19.7297 18.3597H21.2497M28.0896 18.3597H29.6096M19.7297 27.4795H21.2497M12.1402 2.25V9.84988M28.8496 2.25V9.84988M2.85127 31.9658C3.34174 36.3415 6.89827 39.8156 11.2963 40.0275C14.3361 40.174 17.4413 40.25 20.8115 40.25C24.1818 40.25 27.287 40.174 30.3267 40.0275C34.7249 39.8156 38.2813 36.3415 38.7717 31.9658C39.1021 29.0191 39.373 25.9981 39.373 22.9206C39.373 19.8431 39.1021 16.8221 38.7717 13.8754C38.2813 9.49977 34.7249 6.02559 30.3267 5.81377C27.287 5.66736 24.1818 5.59127 20.8115 5.59127C17.4413 5.59127 14.3361 5.66736 11.2963 5.81377C6.8983 6.02559 3.34174 9.49977 2.85127 13.8754C2.52098 16.8221 2.25 19.8431 2.25 22.9206C2.25 25.9981 2.52098 29.0191 2.85127 31.9658Z" stroke="#142204" stroke-width="4.5" stroke-linecap="round" stroke-linejoin="round"/>
</svg>
