<svg width="39" height="40" viewBox="0 0 39 40" fill="none" xmlns="http://www.w3.org/2000/svg">
<path d="M10.6026 17.0879H11.9948M10.6026 25.4877H11.9948M18.2592 17.0879H19.6513M25.9158 17.0879H27.3079M18.2592 25.4877H19.6513M11.3082 2.25V9.24989M26.6119 2.25V9.24989M2.80069 29.6198C3.2499 33.6501 6.50723 36.8499 10.5352 37.045C13.3193 37.18 16.1633 37.25 19.2501 37.25C22.3367 37.25 25.1808 37.18 27.9647 37.045C31.9929 36.8499 35.2502 33.6501 35.6993 29.6198C36.0019 26.9058 36.25 24.1232 36.25 21.2887C36.25 18.4542 36.0019 15.6717 35.6993 12.9576C35.2502 8.92742 31.9929 5.72752 27.9647 5.53242C25.1808 5.39757 22.3367 5.32749 19.2501 5.32749C16.1633 5.32749 13.3193 5.39757 10.5352 5.53242C6.50726 5.72752 3.2499 8.92742 2.80069 12.9576C2.49819 15.6717 2.25 18.4542 2.25 21.2887C2.25 24.1232 2.49819 26.9058 2.80069 29.6198Z" stroke="#081730" stroke-width="4.5" stroke-linecap="round" stroke-linejoin="round"/>
</svg>