<svg width="38" height="38" viewBox="0 0 38 38" fill="none" xmlns="http://www.w3.org/2000/svg">
<path d="M19 14.5C17.1239 14.5 15.4463 13.9678 14.2393 12.7607C13.0322 11.5537 12.5 9.87611 12.5 8C12.5 6.12389 13.0322 4.4463 14.2393 3.23926C15.4463 2.03222 17.1239 1.5 19 1.5C20.8761 1.5 22.5537 2.03222 23.7607 3.23926C24.9678 4.4463 25.5 6.12389 25.5 8C25.5 9.87611 24.9678 11.5537 23.7607 12.7607C22.5537 13.9678 20.8761 14.5 19 14.5Z" stroke="#081730" stroke-width="3"/>
<path d="M25.7256 16.9502C26.7238 16.5709 27.6618 16.4235 28.5244 16.5381C29.3136 16.643 30.1221 16.9765 30.9297 17.6914L31.0908 17.8398C32.4391 19.1204 32.8147 20.6854 32.4814 22.5088C32.1346 24.4062 31.0136 26.5312 29.3975 28.6006C27.7948 30.6527 25.7856 32.5472 23.8115 33.9824C21.9286 35.3513 20.2138 36.2037 19 36.4727C17.7862 36.2034 16.0718 35.3509 14.1895 33.9824C12.2154 32.5472 10.2062 30.6527 8.60352 28.6006C6.98743 26.5312 5.86638 24.4061 5.51953 22.5088C5.18626 20.6853 5.56261 19.1205 6.91113 17.8398L6.91016 17.8389C7.77125 17.0217 8.63489 16.65 9.47656 16.5381C10.3394 16.4234 11.278 16.5708 12.2764 16.9502C14.307 17.7219 16.3308 19.3552 17.9404 20.9648L19.001 22.0254L20.0615 20.9648C21.6712 19.3552 23.695 17.7218 25.7256 16.9502Z" stroke="#081730" stroke-width="3"/>
</svg>