<svg width="38" height="35" viewBox="0 0 38 35" fill="none" xmlns="http://www.w3.org/2000/svg">
<path d="M38 4.8998V13.2998C38 14.4596 37.0553 15.3998 35.8899 15.3998H27.4497C25.8254 15.4012 24.8087 13.6521 25.6196 12.2514C25.9967 11.6002 26.6946 11.1992 27.4497 11.1998H30.4565L27.1156 8.15831C27.0927 8.13731 27.0699 8.11631 27.0488 8.09356C19.7723 0.856143 7.35221 4.17228 4.69267 14.0626C2.44019 22.4392 8.7148 30.6863 17.4269 30.7999H17.6027C21.0139 30.8081 24.2974 29.5097 26.7727 27.1739C27.9537 26.0632 29.9 26.6414 30.276 28.2147C30.4506 28.9448 30.2204 29.7122 29.6723 30.2277C26.4138 33.3014 22.0923 35.0101 17.6027 35H17.3618C3.82714 34.8101 -4.42554 20.1095 2.50704 8.53882C8.36339 -1.23561 21.8882 -2.93444 30.0011 5.0853L33.7799 8.52582V4.8998C33.7813 3.2832 35.5405 2.27432 36.9465 3.08381C37.5979 3.45885 37.9994 4.15081 38 4.8998Z" fill="#CBDCFF"/>
</svg>
