<svg width="23" height="23" viewBox="0 0 23 23" fill="none" xmlns="http://www.w3.org/2000/svg">
<path d="M4.07487 4.04784C4.27148 3.98337 4.4763 3.93749 4.68721 3.91232C6.0574 3.74869 7.46903 3.59752 8.91104 3.59752C10.353 3.59752 11.7647 3.74869 13.1348 3.91232C14.61 4.08845 15.787 5.27689 15.9437 6.7542C15.9811 7.10617 16.0179 7.46079 16.052 7.81791L19.7441 6.28404C20.2505 6.07361 20.8081 6.4458 20.8081 6.99428V15.5162C20.8081 16.0647 20.2505 16.4369 19.7441 16.2264L16.0511 14.6922C16.0171 15.046 15.9808 15.3973 15.9437 15.7461C15.9227 15.9446 15.8832 16.1379 15.827 16.3243M1.87805 6.75344C1.7234 8.21074 1.5803 9.7135 1.5803 11.2494C1.5803 12.7852 1.7234 14.288 1.87805 15.7453C2.03483 17.2226 3.21183 18.411 4.68697 18.5872C6.05715 18.7508 7.46879 18.902 8.91078 18.902C10.3528 18.902 11.7644 18.7508 13.1346 18.5872M1.25 1.25C8.01249 9.91254 12.4018 14.255 21.25 21.25" stroke="#CBDCFF" stroke-width="2.5" stroke-linecap="round" stroke-linejoin="round"/>
</svg>
