<svg width="27" height="24" viewBox="0 0 27 24" fill="none" xmlns="http://www.w3.org/2000/svg">
<path d="M25.2444 8.40228C25.4745 5.20853 16.5374 -0.7658 16.5374 1.9302V5.06457C14.9641 5.04642 13.4063 5.06898 11.7946 5.13222C10.8753 5.16829 10.1067 5.85773 10.0336 6.77485C9.94889 7.83632 9.94889 8.87127 10.0336 9.93273C10.1067 10.8499 10.8753 11.5393 11.7946 11.5754C12.7347 11.6123 13.6565 11.6353 14.5738 11.6445C15.6546 11.6553 16.5374 12.5259 16.5374 13.6067V14.7774C16.5374 17.4189 25.5051 11.4872 25.2444 8.40228Z" stroke="#243114" stroke-width="2.5" stroke-linecap="round" stroke-linejoin="round"/>
<path d="M1.25558 14.9433C1.0255 11.7495 9.96247 5.77519 9.96247 8.47119V9.64187C9.96247 10.7227 10.8453 11.5932 11.9261 11.6041C12.8434 11.6133 13.7652 11.6363 14.7053 11.6732C15.6247 11.7093 16.3932 12.3987 16.4664 13.3158C16.551 14.3773 16.551 15.4123 16.4664 16.4737C16.3932 17.3908 15.6247 18.0803 14.7053 18.1164C13.0936 18.1796 11.5358 18.2022 9.96247 18.1839V21.3183C9.96247 23.9598 0.99472 18.0282 1.25558 14.9433Z" stroke="#243114" stroke-width="2.5" stroke-linecap="round" stroke-linejoin="round"/>
</svg>
