<svg width="29" height="26" viewBox="0 0 29 26" fill="none" xmlns="http://www.w3.org/2000/svg">
<path d="M8.10286 4.74856C6.75271 4.79264 5.62171 4.84698 4.71048 4.90072C3.031 4.99975 1.70438 6.25025 1.55519 7.88539C1.35532 10.0688 1.25349 12.2598 1.25 14.4519C1.25 17.0223 1.40229 19.3367 1.55519 21.0178C1.70438 22.6529 3.031 23.904 4.7111 24.0024C6.76819 24.1232 9.94514 24.25 14.25 24.25C18.5549 24.25 21.7318 24.1232 23.7895 24.0024C25.469 23.9034 26.7956 22.6529 26.9448 21.0178C27.0977 19.3374 27.25 17.0223 27.25 14.4519C27.25 11.8808 27.0977 9.56641 26.9448 7.88539C26.7956 6.25025 25.469 4.99975 23.7889 4.90072C22.8783 4.84698 21.7473 4.79204 20.3965 4.74856L19.4927 2.93047C19.052 2.04528 18.1964 1.42697 17.1911 1.3527C16.2124 1.28269 15.2313 1.24845 14.25 1.25005C13.054 1.25005 12.0592 1.29776 11.3095 1.3527C10.3036 1.42697 9.44805 2.04528 9.0079 2.93047L8.10348 4.74796L8.10286 4.74856Z" stroke="#CBDCFF" stroke-width="2.5" stroke-linejoin="round"/>
<path d="M8.67857 13.9301C8.67857 15.3714 9.26556 16.7537 10.3104 17.7728C11.3553 18.7919 12.7724 19.3645 14.25 19.3645C15.7276 19.3645 17.1447 18.7919 18.1896 17.7728C19.2344 16.7537 19.8214 15.3714 19.8214 13.9301C19.8214 12.4889 19.2344 11.1066 18.1896 10.0875C17.1447 9.06834 15.7276 8.49579 14.25 8.49579C12.7724 8.49579 11.3553 9.06834 10.3104 10.0875C9.26556 11.1066 8.67857 12.4889 8.67857 13.9301Z" stroke="#CBDCFF" stroke-width="2.5" stroke-linejoin="round"/>
</svg>
